HIERARCHY
ROOT Hips
{
	OFFSET 0.000000 0.000000 0.000000 
	CHANNELS 6 Xposition Yposition Zposition Zrotation Yrotation Xrotation
	JOINT LeftUpLeg
	{
		OFFSET 1.363060 -1.794630 0.839290 
		CHANNELS 3 Zrotation Yrotation Xrotation
		JOINT LeftLeg
		{
			OFFSET 2.448110 -6.726130 0.000000 
			CHANNELS 3 Zrotation Yrotation Xrotation
			JOINT LeftFoot
			{
				OFFSET 2.562200 -7.039590 0.000000 
				CHANNELS 3 Zrotation Yrotation Xrotation
				JOINT LeftToeBase
				{
					OFFSET 0.157640 -0.433110 2.322550 
					CHANNELS 3 Zrotation Yrotation Xrotation
					End Site
					{
						OFFSET 0.000000 0.000000 0.000000 
					}
				}
			}
		}
	}
	JOINT RightUpLeg
	{
		OFFSET -1.305520 -1.794630 0.839290 
		CHANNELS 3 Zrotation Yrotation Xrotation
		JOINT RightLeg
		{
			OFFSET -2.542530 -6.985550 0.000000 
			CHANNELS 3 Zrotation Yrotation Xrotation
			JOINT RightFoot
			{
				OFFSET -2.568260 -7.056230 0.000000 
				CHANNELS 3 Zrotation Yrotation Xrotation
				JOINT RightToeBase
				{
					OFFSET -0.164730 -0.452590 2.363150 
					CHANNELS 3 Zrotation Yrotation Xrotation
					End Site
					{
						OFFSET 0.000000 0.000000 0.000000 
					}
				}
			}
		}
	}
	JOINT Spine
	{
		OFFSET 0.028270 2.035590 -0.193380 
		CHANNELS 3 Zrotation Yrotation Xrotation
		JOINT Spine1
		{
			OFFSET 0.056720 2.048850 -0.042750 
			CHANNELS 3 Zrotation Yrotation Xrotation
			JOINT Neck1
			{
				OFFSET -0.054170 1.746240 0.172020 
				CHANNELS 3 Zrotation Yrotation Xrotation
				JOINT Head
				{
					OFFSET 0.104070 1.761360 -0.123970 
					CHANNELS 3 Zrotation Yrotation Xrotation
					End Site
					{
						OFFSET 0.000000 0.000000 0.000000 
					}
				}
			}
			JOINT LeftArm
			{
				OFFSET 3.362410 1.200890 -0.311210 
				CHANNELS 3 Zrotation Yrotation Xrotation
				JOINT LeftForeArm
				{
					OFFSET 4.983000 -0.000000 -0.000000 
					CHANNELS 3 Zrotation Yrotation Xrotation
					JOINT LeftHand
					{
						OFFSET 3.483560 -0.000000 -0.000000 
						CHANNELS 3 Zrotation Yrotation Xrotation
						JOINT LeftHandIndex1
						{
							OFFSET 0.715260 -0.000000 -0.000000 
							CHANNELS 3 Zrotation Yrotation Xrotation
							End Site
							{
								OFFSET 0.000000 0.000000 0.000000 
							}
						}
					}
				}
			}
			JOINT RightArm
			{
				OFFSET -3.136600 1.374050 -0.404650 
				CHANNELS 3 Zrotation Yrotation Xrotation
				JOINT RightForeArm
				{
					OFFSET -5.241900 -0.000000 -0.000000 
					CHANNELS 3 Zrotation Yrotation Xrotation
					JOINT RightHand
					{
						OFFSET -3.444170 -0.000000 -0.000000 
						CHANNELS 3 Zrotation Yrotation Xrotation
						JOINT RightHandIndex1
						{
							OFFSET -0.622530 -0.000000 -0.000000 
							CHANNELS 3 Zrotation Yrotation Xrotation
							End Site
							{
								OFFSET 0.000000 0.000000 0.000000 
							}
						}
					}
				}
			}
		}
	}
}
MOTION
Frames: 12
Frame Time: 0.041667
1.873682 17.833464 -9.082063 3.475843 8.782486 2.292400 -20.457575 -4.467034 5.361260 -0.926045 5.034666 11.937729 -2.300317 11.806067 -0.192136 0.022700 -0.973500 -2.675900 2.072004 6.469086 -31.136386 -1.064938 -8.112768 20.974737 4.766117 -20.601830 3.777345 -0.433300 4.224000 -11.707600 1.415908 -1.169883 0.021611 3.541000 -0.700045 -1.390390 2.124119 -1.251532 13.569875 -2.226200 -0.316000 9.020000 -91.266171 11.091909 28.951534 18.588631 -28.389932 -4.280450 0.214791 0.459528 -11.193223 -7.125000 0.000000 0.000000 87.491889 -6.129515 8.805747 -15.413896 24.931493 -3.338420 0.048285 -0.595867 -6.424519 7.125000 0.000000 0.000000 
1.861163 17.829291 -9.008042 3.468753 8.885673 2.481436 -20.376735 -4.494814 5.440520 -0.927546 5.029552 11.918544 -2.314163 11.856669 -0.217618 0.022800 -0.974000 -2.677400 1.978793 6.767588 -30.872239 -1.007046 -8.003242 20.655869 4.746204 -20.470534 3.531978 -0.443200 4.271500 -11.841900 1.424961 -1.198529 -0.034385 3.520525 -0.713548 -1.398468 2.161483 -1.265233 13.560005 -2.206100 -0.322200 9.011000 -91.315791 11.150578 28.838152 18.551512 -28.343458 -4.264387 0.215696 0.458371 -11.111462 -7.125000 0.000000 0.000000 87.496400 -6.183959 8.680923 -15.323753 24.812817 -3.304073 0.046348 -0.594241 -6.303777 7.125000 0.000000 0.000000 
1.848545 17.825317 -8.932927 3.476559 8.986696 2.673999 -20.308975 -4.517451 5.519661 -0.928928 5.024557 11.900170 -2.324029 11.892450 -0.246461 0.022600 -0.970700 -2.668100 1.891569 7.028203 -30.605764 -0.946830 -7.884441 20.309671 4.739834 -20.380782 3.256112 -0.449500 4.301200 -11.925600 1.424371 -1.224161 -0.092173 3.490686 -0.725404 -1.413005 2.220825 -1.291321 13.554058 -2.176800 -0.332700 9.002600 -91.350238 11.211757 28.749346 18.521147 -28.305310 -4.251335 0.216284 0.458970 -11.011308 -7.125000 0.000000 0.000000 87.514222 -6.245832 8.549709 -15.245746 24.710372 -3.274915 0.044846 -0.593226 -6.208223 7.125000 0.000000 0.000000 
1.835132 17.821442 -8.857416 3.495632 9.093082 2.877386 -20.242347 -4.542159 5.586419 -0.930515 5.019040 11.882148 -2.326972 11.901221 -0.272022 0.022800 -0.974100 -2.677500 1.809871 7.267126 -30.348961 -0.888068 -7.763477 19.956187 4.754786 -20.361665 2.946186 -0.452100 4.313500 -11.960300 1.424390 -1.253750 -0.155841 3.471179 -0.738255 -1.437331 2.252200 -1.305486 13.533102 -2.161000 -0.339700 8.991900 -91.385302 11.269387 28.661378 18.491341 -28.267652 -4.238373 0.216233 0.459205 -10.901845 -7.125000 0.000000 0.000000 87.530726 -6.307321 8.421960 -15.176055 24.618631 -3.249159 0.043769 -0.592593 -6.135071 7.125000 0.000000 0.000000 
1.821619 17.817468 -8.781109 3.527955 9.196895 3.082283 -20.186702 -4.567129 5.657620 -0.932507 5.011578 11.858356 -2.326337 11.899096 -0.283773 0.023800 -0.995600 -2.736700 1.740500 7.463913 -30.105945 -0.833491 -7.647614 19.618313 4.782906 -20.385205 2.608000 -0.449900 4.303100 -11.930900 1.420849 -1.284354 -0.212928 3.453084 -0.752084 -1.454141 2.272649 -1.315967 13.522616 -2.151200 -0.345000 8.992900 -91.419179 11.305483 28.570652 18.455009 -28.222217 -4.222631 0.215835 0.460272 -10.779702 -7.125000 0.000000 0.000000 87.549447 -6.354693 8.298010 -15.116162 24.539806 -3.227428 0.043341 -0.592569 -6.092641 7.125000 0.000000 0.000000 
1.807908 17.813593 -8.704008 3.575138 9.298284 3.287858 -20.141392 -4.587680 5.725986 -0.934201 5.005144 11.839270 -2.320076 11.874967 -0.297312 0.025400 -1.029800 -2.830800 1.687357 7.610296 -29.882989 -0.784981 -7.541691 19.307701 4.823966 -20.458602 2.276994 -0.448200 4.295000 -11.908200 1.416534 -1.315536 -0.271453 3.442719 -0.764963 -1.473591 2.235098 -1.297728 13.466009 -2.168900 -0.341100 8.973900 -91.453365 11.338150 28.484015 18.410286 -28.166182 -4.203369 0.216018 0.460432 -10.664941 -7.125000 0.000000 0.000000 87.565247 -6.397346 8.170435 -15.052291 24.455226 -3.204149 0.042692 -0.592415 -6.047864 7.125000 0.000000 0.000000 
1.793998 17.809519 -8.625913 3.634630 9.375272 3.493658 -20.106613 -4.593794 5.790378 -0.935518 4.998837 11.820465 -2.311860 11.845937 -0.293908 0.028400 -1.087800 -2.990500 1.661175 7.707959 -29.691288 -0.743467 -7.449640 19.037849 4.870193 -20.554954 1.956130 -0.446700 4.288000 -11.888500 1.409069 -1.340025 -0.322587 3.435968 -0.774898 -1.485175 2.201597 -1.278294 13.401420 -2.183800 -0.337800 8.958400 -91.487998 11.346930 28.395312 18.358823 -28.102011 -4.181233 0.215745 0.460986 -10.563005 -7.125000 0.000000 0.000000 87.576815 -6.429658 8.059867 -14.992871 24.376286 -3.182628 0.041896 -0.592125 -6.013046 7.125000 0.000000 0.000000 
1.779392 17.805346 -8.547123 3.695450 9.431429 3.696984 -20.070195 -4.592587 5.849965 -0.935737 4.996232 11.812452 -2.302137 11.811161 -0.286121 0.031900 -1.152600 -3.168800 1.671387 7.762860 -29.526744 -0.708537 -7.372460 18.812942 4.921597 -20.668763 1.617286 -0.447500 4.291800 -11.899200 1.402794 -1.359965 -0.373077 3.434531 -0.782673 -1.499158 2.178932 -1.263799 13.356231 -2.193300 -0.335500 8.950900 -91.521721 11.356341 28.302112 18.304351 -28.033333 -4.157625 0.215623 0.460235 -10.486700 -7.125000 0.000000 0.000000 87.591700 -6.460351 7.951473 -14.934887 24.299693 -3.161759 0.040629 -0.591782 -5.962479 7.125000 0.000000 0.000000 
1.764588 17.801074 -8.466842 3.756888 9.454205 3.890497 -20.037846 -4.578567 5.913947 -0.934749 4.997930 11.815778 -2.294016 11.783187 -0.275314 0.032000 -1.155500 -3.176700 1.721649 7.775360 -29.384531 -0.680591 -7.312871 18.640596 4.971977 -20.781401 1.275482 -0.445800 4.284000 -11.877000 1.392981 -1.363001 -0.417056 3.426789 -0.782536 -1.511260 2.184405 -1.257598 13.308521 -2.188700 -0.336800 8.945800 -91.549021 11.354456 28.216211 18.244701 -27.957608 -4.131660 0.215196 0.459056 -10.427838 -7.125000 0.000000 0.000000 87.610407 -6.498302 7.853111 -14.886768 24.235840 -3.144180 0.039069 -0.590977 -5.908402 7.125000 0.000000 0.000000 
1.748889 17.797100 -8.386263 3.803079 9.456879 4.081721 -19.986666 -4.570941 5.969954 -0.932527 5.005478 11.834892 -2.287799 11.762193 -0.255514 0.034400 -1.196900 -3.290700 1.817161 7.765095 -29.265132 -0.659222 -7.270859 18.520908 5.023967 -20.900950 0.919231 -0.443300 4.272000 -11.843200 1.387283 -1.362539 -0.462946 3.417794 -0.780741 -1.534120 2.230510 -1.267008 13.255295 -2.163700 -0.344700 8.937600 -91.577550 11.348475 28.111677 18.179173 -27.873725 -4.102972 0.214880 0.456343 -10.348256 -7.125000 0.000000 0.000000 87.629250 -6.531963 7.766425 -14.841455 24.176115 -3.127617 0.037444 -0.590039 -5.834641 7.125000 0.000000 0.000000 
1.733091 17.793026 -8.304889 3.853293 9.434927 4.268706 -19.946039 -4.563470 6.026648 -0.929054 5.018201 11.867548 -2.284972 11.755241 -0.227777 0.037500 -1.249200 -3.434900 1.946360 7.694392 -29.175544 -0.644796 -7.247444 18.457145 5.062628 -20.981271 0.589642 -0.437700 4.245400 -11.768100 1.378589 -1.356567 -0.507986 3.403489 -0.776055 -1.566760 2.302949 -1.281553 13.209815 -2.125100 -0.353800 8.931100 -91.605303 11.335033 28.006535 18.109836 -27.784990 -4.072749 0.214500 0.454238 -10.251839 -7.125000 0.000000 0.000000 87.645734 -6.570796 7.688412 -14.802443 24.124161 -3.112623 0.035468 -0.588242 -5.732550 7.125000 0.000000 0.000000 
1.717194 17.788853 -8.222820 3.906356 9.385701 4.451613 -19.913489 -4.547945 6.079015 -0.924227 5.035626 11.913027 -2.284847 11.759642 -0.193856 0.055800 -1.524100 -4.192300 2.101037 7.589860 -29.108648 -0.637448 -7.242553 18.447965 5.091121 -21.035352 0.298680 -0.430400 4.210300 -11.669000 1.367650 -1.344091 -0.546818 3.385002 -0.768093 -1.597134 2.363156 -1.285098 13.137699 -2.091700 -0.360000 8.918500 -91.637189 11.310287 27.878530 18.043161 -27.699708 -4.043674 0.213639 0.451835 -10.140170 -7.125000 0.000000 0.000000 87.658494 -6.592769 7.629634 -14.766816 24.076632 -3.098593 0.033734 -0.586382 -5.621023 7.125000 0.000000 0.000000 
